<?xml version="1.0" encoding="UTF-8"?> <svg xmlns="http://www.w3.org/2000/svg" id="Group_33" data-name="Group 33" width="270.271" height="26.387" viewBox="0 0 270.271 26.387"><path id="Path_9749" data-name="Path 9749" d="M30.182,55.833,43.1,30,51.713,47.22l-4.306,8.612Z" transform="translate(-30.182 -29.996)" fill="#0099e5"></path><path id="Path_9750" data-name="Path 9750" d="M57.877,55.833,44.959,30H62.184L75.1,55.833Z" transform="translate(-32.04 -29.996)" fill="#003b7e"></path><path id="Path_9751" data-name="Path 9751" d="M69.587,38.608,73.893,30,82.505,47.22,78.2,55.833Z" transform="translate(-35.137 -29.996)" fill="#e50019"></path><path id="Path_9752" data-name="Path 9752" d="M74.512,30H91.737l12.919,25.837H87.431Z" transform="translate(-35.757 -29.996)" fill="#8c0d18"></path><path id="Path_9753" data-name="Path 9753" d="M99.14,38.608,103.447,30l8.612,17.225-4.306,8.612Z" transform="translate(-38.854 -29.996)" fill="#e50019"></path><path id="Path_9754" data-name="Path 9754" d="M104.066,30h17.225l12.919,25.837H116.985Z" transform="translate(-39.473 -29.996)" fill="#8c0d18"></path><g id="Group_32" data-name="Group 32" transform="translate(112.233 8.595)"><path id="Path_9755" data-name="Path 9755" d="M165.149,39.827h3.387l6.59,17.375h-3.646l-1.512-4.4h-6.46L162,57.2h-3.438Zm3.882,10.264-2.292-6.747-2.318,6.747Z" transform="translate(-158.559 -39.827)" fill="#fff"></path><path id="Path_9756" data-name="Path 9756" d="M178.194,45.689h2.944l.079,1.381q.233-.261.533-.56a3.177,3.177,0,0,1,.73-.534,4.719,4.719,0,0,1,.99-.391,4.815,4.815,0,0,1,1.29-.156,4.209,4.209,0,0,1,3.673,1.772,5.838,5.838,0,0,1,1.915-1.368,5.951,5.951,0,0,1,2.279-.4,4.548,4.548,0,0,1,3.556,1.368,5.285,5.285,0,0,1,1.238,3.686v7.424h-3.074v-7.4a2.581,2.581,0,0,0-.587-1.811,2.065,2.065,0,0,0-1.6-.638,2.632,2.632,0,0,0-1.146.247,2.675,2.675,0,0,0-.9.691,3.06,3.06,0,0,0-.574,1.029,3.969,3.969,0,0,0-.195,1.263v6.616h-3.074v-7.4a2.581,2.581,0,0,0-.586-1.811,2.067,2.067,0,0,0-1.6-.638,2.632,2.632,0,0,0-1.146.247,2.675,2.675,0,0,0-.9.691,3.058,3.058,0,0,0-.573,1.029,3.968,3.968,0,0,0-.2,1.263v6.616h-3.074Z" transform="translate(-161.028 -40.531)" fill="#fff"></path><path id="Path_9757" data-name="Path 9757" d="M213.793,56.112l-.429.429a5.116,5.116,0,0,1-1.016.743,7.884,7.884,0,0,1-1.693.7,8.541,8.541,0,0,1-2.462.313,6.888,6.888,0,0,1-2.657-.5,5.836,5.836,0,0,1-3.347-3.464,7.727,7.727,0,0,1-.455-2.709,6.825,6.825,0,0,1,.455-2.514,6.176,6.176,0,0,1,1.276-2.019,5.978,5.978,0,0,1,1.954-1.354,6.218,6.218,0,0,1,2.513-.495,5.989,5.989,0,0,1,2.826.612,5.256,5.256,0,0,1,1.863,1.6,6.608,6.608,0,0,1,1.016,2.241,10.5,10.5,0,0,1,.312,2.553V52.7h-9.117a2.511,2.511,0,0,0,.3,1.225,3.124,3.124,0,0,0,.782.938,3.538,3.538,0,0,0,1.095.6,3.733,3.733,0,0,0,1.211.208,6.177,6.177,0,0,0,2.683-.56,3.662,3.662,0,0,0,.768-.469q.3-.247.456-.4Zm-3-5.627a2.574,2.574,0,0,0-.183-.938,2.638,2.638,0,0,0-.533-.846,2.779,2.779,0,0,0-.9-.625,3,3,0,0,0-1.251-.247,3.416,3.416,0,0,0-1.341.247,3.142,3.142,0,0,0-.977.625,2.7,2.7,0,0,0-.6.846,2.292,2.292,0,0,0-.208.938Z" transform="translate(-163.988 -40.509)" fill="#fff"></path><path id="Path_9758" data-name="Path 9758" d="M217.227,45.692h2.944l.078,1.538a6.047,6.047,0,0,1,.534-.574,4.13,4.13,0,0,1,.768-.574,4.924,4.924,0,0,1,1.029-.442,4.517,4.517,0,0,1,1.342-.183,5.418,5.418,0,0,1,.794.052,3.818,3.818,0,0,1,.717.182l-.625,2.892a2.848,2.848,0,0,0-.638-.183,5.029,5.029,0,0,0-.768-.052,3.478,3.478,0,0,0-1.2.208,2.847,2.847,0,0,0-.99.6,2.9,2.9,0,0,0-.912,2.162V57.91h-3.074Z" transform="translate(-165.937 -40.535)" fill="#fff"></path><path id="Path_9759" data-name="Path 9759" d="M227.447,39.827h3.282v3.23h-3.282Zm.1,5.157h3.074V57.2h-3.074Z" transform="translate(-167.222 -39.827)" fill="#fff"></path><path id="Path_9760" data-name="Path 9760" d="M244.171,56.268a6.588,6.588,0,0,1-2.032,1.459,6.411,6.411,0,0,1-2.736.547,7.74,7.74,0,0,1-2.787-.469,5.609,5.609,0,0,1-2.058-1.328,5.794,5.794,0,0,1-1.276-2.058,7.606,7.606,0,0,1-.443-2.657,6.6,6.6,0,0,1,.483-2.513,6.262,6.262,0,0,1,3.412-3.478,7.125,7.125,0,0,1,5.379.012,6.3,6.3,0,0,1,2.084,1.446l-1.954,1.98a3.794,3.794,0,0,0-1.225-.938,3.681,3.681,0,0,0-1.615-.338,3.4,3.4,0,0,0-1.537.325,3.292,3.292,0,0,0-1.081.846,3.436,3.436,0,0,0-.637,1.225,4.986,4.986,0,0,0-.209,1.433,4.637,4.637,0,0,0,.209,1.38,3.735,3.735,0,0,0,.637,1.224,3.192,3.192,0,0,0,2.618,1.225,3.9,3.9,0,0,0,1.667-.351,3.8,3.8,0,0,0,1.276-.951Z" transform="translate(-167.9 -40.509)" fill="#fff"></path><path id="Path_9761" data-name="Path 9761" d="M254.066,56.738a4.212,4.212,0,0,1-1.511,1.067,5.34,5.34,0,0,1-2.266.469,4.968,4.968,0,0,1-1.5-.234,4.222,4.222,0,0,1-1.354-.717,3.572,3.572,0,0,1-.99-1.237,3.9,3.9,0,0,1-.378-1.771,4.284,4.284,0,0,1,.391-1.863,3.87,3.87,0,0,1,1.094-1.38,4.852,4.852,0,0,1,1.693-.846,7.832,7.832,0,0,1,2.188-.287c.243,0,.511,0,.807.013s.582.022.86.039q.468.026.963.052v-.287a1.664,1.664,0,0,0-.729-1.432,3.2,3.2,0,0,0-1.9-.521,5.328,5.328,0,0,0-2.084.338,9.3,9.3,0,0,0-1.38.729l-1.407-2.083q.365-.261.833-.534a6.435,6.435,0,0,1,1.095-.495,8.937,8.937,0,0,1,1.445-.365,11.282,11.282,0,0,1,1.915-.143,6.538,6.538,0,0,1,2.124.325,4.878,4.878,0,0,1,1.628.912,3.983,3.983,0,0,1,1.042,1.407,4.348,4.348,0,0,1,.365,1.784v8.206h-2.866Zm0-4.376-.912-.052q-.365-.026-.768-.039t-.69-.013a2.945,2.945,0,0,0-2.084.586,1.828,1.828,0,0,0-.6,1.342,1.472,1.472,0,0,0,.56,1.224,2.626,2.626,0,0,0,1.654.443,3.174,3.174,0,0,0,1.954-.678,2.68,2.68,0,0,0,.638-.729,1.714,1.714,0,0,0,.247-.886Z" transform="translate(-169.564 -40.509)" fill="#fff"></path><path id="Path_9762" data-name="Path 9762" d="M265.346,39.827h3.048l4.819,8.206,4.741-8.206H281l.834,17.375h-3.2l-.573-12.035-4.168,7.086h-1.537l-4.194-6.9L267.586,57.2h-3.074Z" transform="translate(-171.883 -39.827)" fill="#fff"></path><path id="Path_9763" data-name="Path 9763" d="M293.814,56.738a4.221,4.221,0,0,1-1.511,1.067,5.341,5.341,0,0,1-2.267.469,4.967,4.967,0,0,1-1.5-.234,4.221,4.221,0,0,1-1.354-.717,3.585,3.585,0,0,1-.991-1.237,3.914,3.914,0,0,1-.378-1.771,4.284,4.284,0,0,1,.391-1.863,3.872,3.872,0,0,1,1.095-1.38,4.848,4.848,0,0,1,1.693-.846,7.841,7.841,0,0,1,2.188-.287q.365,0,.808.013c.3.009.581.022.859.039.313.017.634.035.964.052v-.287a1.665,1.665,0,0,0-.73-1.432,3.2,3.2,0,0,0-1.9-.521,5.326,5.326,0,0,0-2.083.338,9.359,9.359,0,0,0-1.381.729l-1.407-2.083q.365-.261.834-.534a6.425,6.425,0,0,1,1.094-.495,8.95,8.95,0,0,1,1.446-.365,11.282,11.282,0,0,1,1.915-.143,6.529,6.529,0,0,1,2.123.325,4.882,4.882,0,0,1,1.629.912,3.982,3.982,0,0,1,1.042,1.407,4.362,4.362,0,0,1,.365,1.784v8.206h-2.866Zm0-4.376-.912-.052q-.365-.026-.768-.039t-.691-.013a2.942,2.942,0,0,0-2.083.586,1.826,1.826,0,0,0-.6,1.342,1.473,1.473,0,0,0,.56,1.224,2.626,2.626,0,0,0,1.654.443,3.174,3.174,0,0,0,1.954-.678,2.68,2.68,0,0,0,.638-.729,1.714,1.714,0,0,0,.247-.886Z" transform="translate(-174.562 -40.509)" fill="#fff"></path><path id="Path_9764" data-name="Path 9764" d="M300.536,39.827h3.073v9.482l4.4-4.325h3.621l-4.585,4.507,5.106,7.711H308.48l-3.542-5.627-1.329,1.3V57.2h-3.073Z" transform="translate(-176.414 -39.827)" fill="#fff"></path><path id="Path_9765" data-name="Path 9765" d="M325.11,56.112l-.429.429a5.115,5.115,0,0,1-1.016.743,7.884,7.884,0,0,1-1.693.7,8.545,8.545,0,0,1-2.462.313,6.888,6.888,0,0,1-2.657-.5,5.836,5.836,0,0,1-3.347-3.464,7.706,7.706,0,0,1-.456-2.709,6.807,6.807,0,0,1,.456-2.514,6.161,6.161,0,0,1,1.276-2.019,5.978,5.978,0,0,1,1.954-1.354,6.218,6.218,0,0,1,2.513-.495,5.989,5.989,0,0,1,2.826.612,5.256,5.256,0,0,1,1.863,1.6,6.608,6.608,0,0,1,1.016,2.241,10.5,10.5,0,0,1,.312,2.553V52.7h-9.117a2.511,2.511,0,0,0,.3,1.225,3.123,3.123,0,0,0,.782.938,3.538,3.538,0,0,0,1.095.6,3.733,3.733,0,0,0,1.211.208,6.177,6.177,0,0,0,2.683-.56,3.661,3.661,0,0,0,.768-.469q.3-.247.456-.4Zm-3-5.627a2.574,2.574,0,0,0-.183-.938,2.625,2.625,0,0,0-.534-.846,2.766,2.766,0,0,0-.9-.625,3,3,0,0,0-1.251-.247,3.416,3.416,0,0,0-1.341.247,3.157,3.157,0,0,0-.977.625,2.7,2.7,0,0,0-.6.846,2.292,2.292,0,0,0-.208.938Z" transform="translate(-177.987 -40.509)" fill="#fff"></path><path id="Path_9766" data-name="Path 9766" d="M329.112,54.393a4.6,4.6,0,0,0,1.446.951,4.971,4.971,0,0,0,1.992.378,4.042,4.042,0,0,0,1.589-.261.887.887,0,0,0,.6-.859.957.957,0,0,0-.547-.912,4.931,4.931,0,0,0-.937-.417,16.273,16.273,0,0,0-1.616-.443,11.353,11.353,0,0,1-1.3-.416,4.941,4.941,0,0,1-1.263-.717,3.858,3.858,0,0,1-.963-1.094,2.941,2.941,0,0,1-.378-1.524,3.029,3.029,0,0,1,.442-1.628,3.915,3.915,0,0,1,1.159-1.2,5.742,5.742,0,0,1,1.616-.742,6.458,6.458,0,0,1,1.811-.261,9.7,9.7,0,0,1,2.748.338,6.541,6.541,0,0,1,2.045,1.016l-1.589,2.162a5.32,5.32,0,0,0-1.3-.664,5.453,5.453,0,0,0-1.9-.3,2.629,2.629,0,0,0-1.525.325.97.97,0,0,0-.429.795q0,.573.716.9a13.293,13.293,0,0,0,2.228.691,9.87,9.87,0,0,1,1.68.52,4.689,4.689,0,0,1,1.276.782,3.216,3.216,0,0,1,.82,1.108,3.694,3.694,0,0,1,.287,1.524,3.125,3.125,0,0,1-.417,1.6,3.758,3.758,0,0,1-1.133,1.212,5.679,5.679,0,0,1-1.667.768,7.289,7.289,0,0,1-2.019.274,9.379,9.379,0,0,1-3.1-.482,5.178,5.178,0,0,1-2.214-1.42Z" transform="translate(-179.775 -40.509)" fill="#fff"></path></g></svg> 