<?xml version="1.0" encoding="utf-8"?>
<!-- Generator: Adobe Illustrator 19.2.1, SVG Export Plug-In . SVG Version: 6.00 Build 0)  -->
<svg version="1.1" id="layer" xmlns="http://www.w3.org/2000/svg" xmlns:xlink="http://www.w3.org/1999/xlink" x="0px" y="0px"
	 viewBox="0 0 652 652" style="enable-background:new 0 0 652 652;" xml:space="preserve">
<style type="text/css">
	.st0{fill:#00A6E9;}
	.st1{fill:#004A8F;}
	.st2{fill:#ED1D24;}
	.st3{fill:#A01E21;}
	.st4{fill:#1F2958;}
</style>
<polygon class="st0" points="20.9,349.7 49.6,292.3 68.7,330.6 59.2,349.7 "/>
<polygon class="st1" points="78.3,349.7 49.6,292.3 87.8,292.3 116.5,349.7 "/>
<polygon class="st2" points="97.4,311.5 107,292.3 126.1,330.6 116.5,349.7 "/>
<polygon class="st3" points="107,292.3 145.2,292.3 173.9,349.7 135.6,349.7 "/>
<polygon class="st2" points="154.8,311.5 164.3,292.3 183.4,330.6 173.9,349.7 "/>
<polygon class="st3" points="164.3,292.3 202.6,292.3 231.2,349.7 193,349.7 "/>
<path class="st4" d="M284.7,311.4h7.5l14.6,38.6h-8.1l-3.4-9.8h-14.3l-3.4,9.8h-7.6L284.7,311.4z M293.3,334.2l-5.1-15l-5.1,15
	H293.3z"/>
<g>
	<path class="st4" d="M308.2,322.9h6.5l0.2,3.1c0.3-0.4,0.7-0.8,1.2-1.2c0.4-0.4,1-0.8,1.6-1.2c0.6-0.3,1.4-0.6,2.2-0.9
		c0.8-0.2,1.8-0.3,2.9-0.3c3.6,0,6.3,1.3,8.2,3.9c1.4-1.4,2.8-2.4,4.2-3c1.4-0.6,3.1-0.9,5.1-0.9c3.4,0,6.1,1,7.9,3
		c1.8,2,2.7,4.8,2.7,8.2V350H344v-16.4c0-1.7-0.4-3.1-1.3-4c-0.9-0.9-2.1-1.4-3.6-1.4c-0.9,0-1.8,0.2-2.5,0.5
		c-0.8,0.4-1.4,0.9-2,1.5c-0.6,0.7-1,1.4-1.3,2.3c-0.3,0.9-0.4,1.8-0.4,2.8V350h-6.8v-16.4c0-1.7-0.4-3.1-1.3-4
		c-0.9-0.9-2.1-1.4-3.6-1.4c-0.9,0-1.8,0.2-2.5,0.5c-0.8,0.4-1.4,0.9-2,1.5c-0.6,0.7-1,1.4-1.3,2.3c-0.3,0.9-0.4,1.8-0.4,2.8V350
		h-6.8V322.9z"/>
	<path class="st4" d="M380.7,346.1c-0.1,0.1-0.4,0.4-1,1c-0.5,0.5-1.3,1.1-2.3,1.6c-1,0.6-2.2,1.1-3.8,1.6c-1.5,0.5-3.3,0.7-5.5,0.7
		c-2.2,0-4.1-0.4-5.9-1.1c-1.8-0.7-3.3-1.7-4.5-3c-1.3-1.3-2.2-2.8-2.9-4.7c-0.7-1.8-1-3.8-1-6c0-2,0.3-3.9,1-5.6
		c0.7-1.7,1.6-3.2,2.8-4.5c1.2-1.3,2.7-2.3,4.3-3c1.7-0.7,3.5-1.1,5.6-1.1c2.5,0,4.6,0.5,6.3,1.4c1.7,0.9,3.1,2.1,4.1,3.6
		c1,1.5,1.8,3.1,2.3,5c0.5,1.9,0.7,3.7,0.7,5.7v1h-20.2c0,1,0.2,1.9,0.7,2.7c0.4,0.8,1,1.5,1.7,2.1c0.7,0.6,1.5,1,2.4,1.3
		c0.9,0.3,1.8,0.5,2.7,0.5c1.3,0,2.5-0.1,3.4-0.4c1-0.2,1.8-0.5,2.5-0.9c0.7-0.3,1.3-0.7,1.7-1c0.4-0.4,0.8-0.7,1-0.9L380.7,346.1z
		 M374,333.6c0-0.7-0.1-1.4-0.4-2.1c-0.3-0.7-0.7-1.3-1.2-1.9c-0.5-0.6-1.2-1-2-1.4c-0.8-0.4-1.7-0.6-2.8-0.6c-1.1,0-2.1,0.2-3,0.6
		c-0.9,0.4-1.6,0.8-2.2,1.4c-0.6,0.6-1,1.2-1.3,1.9c-0.3,0.7-0.5,1.4-0.5,2.1H374z"/>
	<path class="st4" d="M384,322.9h6.5l0.2,3.4c0.3-0.4,0.7-0.8,1.2-1.3c0.5-0.5,1-0.9,1.7-1.3c0.7-0.4,1.4-0.7,2.3-1
		c0.9-0.3,1.9-0.4,3-0.4c0.7,0,1.2,0,1.8,0.1c0.5,0.1,1.1,0.2,1.6,0.4l-1.4,6.4c-0.5-0.2-0.9-0.3-1.4-0.4c-0.5-0.1-1.1-0.1-1.7-0.1
		c-0.9,0-1.8,0.2-2.7,0.5c-0.9,0.3-1.6,0.8-2.2,1.3c-0.6,0.6-1.1,1.3-1.5,2.1c-0.4,0.8-0.5,1.7-0.5,2.7V350H384V322.9z"/>
	<path class="st4" d="M403.8,311.4h7.3v7.2h-7.3V311.4z M404,322.9h6.8V350H404V322.9z"/>
	<path class="st4" d="M439.4,346.4c-1.3,1.3-2.8,2.4-4.5,3.2c-1.7,0.8-3.8,1.2-6.1,1.2c-2.3,0-4.4-0.3-6.2-1
		c-1.8-0.7-3.3-1.7-4.6-2.9c-1.2-1.3-2.2-2.8-2.8-4.6c-0.7-1.8-1-3.7-1-5.9c0-2,0.4-3.8,1.1-5.6c0.7-1.8,1.7-3.3,3-4.6
		c1.3-1.3,2.8-2.4,4.6-3.1c1.8-0.8,3.8-1.2,5.9-1.2c2.2,0,4.2,0.4,6,1.2c1.8,0.8,3.4,1.9,4.6,3.2l-4.3,4.4c-0.8-0.9-1.7-1.6-2.7-2.1
		c-1-0.5-2.2-0.8-3.6-0.8c-1.3,0-2.4,0.2-3.4,0.7c-1,0.5-1.8,1.1-2.4,1.9c-0.6,0.8-1.1,1.7-1.4,2.7c-0.3,1-0.5,2.1-0.5,3.2
		c0,1,0.2,2.1,0.5,3.1c0.3,1,0.8,1.9,1.4,2.7c0.6,0.8,1.4,1.5,2.4,2c1,0.5,2.1,0.8,3.4,0.8c1.3,0,2.6-0.3,3.7-0.8
		c1.1-0.5,2.1-1.2,2.8-2.1L439.4,346.4z"/>
	<path class="st4" d="M457.7,347.5c-0.7,0.9-1.8,1.7-3.4,2.4c-1.5,0.7-3.2,1-5,1c-1.1,0-2.2-0.2-3.3-0.5c-1.1-0.3-2.1-0.9-3-1.6
		c-0.9-0.7-1.6-1.6-2.2-2.7c-0.6-1.1-0.8-2.4-0.8-3.9c0-1.5,0.3-2.9,0.9-4.1c0.6-1.2,1.4-2.2,2.4-3.1c1-0.8,2.3-1.5,3.8-1.9
		c1.5-0.4,3.1-0.6,4.9-0.6c0.5,0,1.1,0,1.8,0c0.7,0,1.3,0,1.9,0.1c0.7,0,1.4,0.1,2.1,0.1V332c0-1.3-0.5-2.4-1.6-3.2
		c-1.1-0.8-2.5-1.2-4.2-1.2c-1.9,0-3.5,0.3-4.6,0.8c-1.2,0.5-2.2,1-3.1,1.6l-3.1-4.6c0.5-0.4,1.2-0.8,1.8-1.2
		c0.7-0.4,1.5-0.8,2.4-1.1c0.9-0.3,2-0.6,3.2-0.8c1.2-0.2,2.6-0.3,4.3-0.3c1.7,0,3.3,0.2,4.7,0.7c1.4,0.5,2.6,1.2,3.6,2
		c1,0.9,1.8,1.9,2.3,3.1c0.5,1.2,0.8,2.5,0.8,4V350h-6.4L457.7,347.5z M457.7,337.7c-0.7,0-1.4-0.1-2-0.1c-0.5,0-1.1-0.1-1.7-0.1
		c-0.6,0-1.1,0-1.5,0c-2.2,0-3.7,0.4-4.6,1.3c-0.9,0.9-1.3,1.9-1.3,3c0,1.2,0.4,2.1,1.2,2.7c0.8,0.7,2.1,1,3.7,1
		c0.8,0,1.6-0.1,2.3-0.4c0.8-0.3,1.4-0.6,2-1.1c0.6-0.5,1.1-1,1.4-1.6c0.4-0.6,0.5-1.3,0.5-2V337.7z"/>
	<polygon class="st4" points="477.6,311.4 484.3,311.4 495,329.6 505.6,311.4 512.3,311.4 514.2,350 507.1,350 505.8,323.3 
		496.5,339 493.1,339 483.8,323.7 482.5,350 475.7,350 	"/>
	<path class="st4" d="M534.8,347.5c-0.7,0.9-1.8,1.7-3.4,2.4c-1.5,0.7-3.2,1-5,1c-1.1,0-2.2-0.2-3.3-0.5c-1.1-0.3-2.1-0.9-3-1.6
		c-0.9-0.7-1.6-1.6-2.2-2.7c-0.6-1.1-0.8-2.4-0.8-3.9c0-1.5,0.3-2.9,0.9-4.1c0.6-1.2,1.4-2.2,2.4-3.1c1-0.8,2.3-1.5,3.8-1.9
		c1.5-0.4,3.1-0.6,4.9-0.6c0.5,0,1.1,0,1.8,0c0.7,0,1.3,0,1.9,0.1c0.7,0,1.4,0.1,2.1,0.1V332c0-1.3-0.5-2.4-1.6-3.2
		c-1.1-0.8-2.5-1.2-4.2-1.2c-1.9,0-3.5,0.3-4.6,0.8c-1.2,0.5-2.2,1-3.1,1.6l-3.1-4.6c0.5-0.4,1.2-0.8,1.8-1.2
		c0.7-0.4,1.5-0.8,2.4-1.1c0.9-0.3,2-0.6,3.2-0.8c1.2-0.2,2.6-0.3,4.3-0.3c1.7,0,3.3,0.2,4.7,0.7c1.4,0.5,2.6,1.2,3.6,2
		c1,0.9,1.8,1.9,2.3,3.1c0.5,1.2,0.8,2.5,0.8,4V350H535L534.8,347.5z M534.8,337.7c-0.7,0-1.4-0.1-2-0.1c-0.5,0-1.1-0.1-1.7-0.1
		c-0.6,0-1.1,0-1.5,0c-2.2,0-3.7,0.4-4.6,1.3c-0.9,0.9-1.3,1.9-1.3,3c0,1.2,0.4,2.1,1.2,2.7c0.8,0.7,2.1,1,3.7,1
		c0.8,0,1.6-0.1,2.3-0.4c0.8-0.3,1.4-0.6,2-1.1c0.6-0.5,1.1-1,1.4-1.6c0.4-0.6,0.5-1.3,0.5-2V337.7z"/>
	<polygon class="st4" points="545.6,311.4 552.5,311.4 552.5,332.5 562.2,322.9 570.3,322.9 560.1,332.9 571.4,350 563.3,350 
		555.4,337.5 552.5,340.4 552.5,350 545.6,350 	"/>
	<path class="st4" d="M596.7,346.1c-0.1,0.1-0.4,0.4-1,1c-0.5,0.5-1.3,1.1-2.3,1.6c-1,0.6-2.2,1.1-3.8,1.6c-1.5,0.5-3.3,0.7-5.5,0.7
		c-2.2,0-4.1-0.4-5.9-1.1c-1.8-0.7-3.3-1.7-4.5-3c-1.3-1.3-2.2-2.8-2.9-4.7c-0.7-1.8-1-3.8-1-6c0-2,0.3-3.9,1-5.6
		c0.7-1.7,1.6-3.2,2.8-4.5c1.2-1.3,2.7-2.3,4.3-3c1.7-0.7,3.5-1.1,5.6-1.1c2.5,0,4.6,0.5,6.3,1.4c1.7,0.9,3.1,2.1,4.1,3.6
		c1,1.5,1.8,3.1,2.3,5c0.5,1.9,0.7,3.7,0.7,5.7v1h-20.2c0,1,0.2,1.9,0.7,2.7c0.4,0.8,1,1.5,1.7,2.1c0.7,0.6,1.5,1,2.4,1.3
		c0.9,0.3,1.8,0.5,2.7,0.5c1.3,0,2.5-0.1,3.4-0.4c1-0.2,1.8-0.5,2.5-0.9c0.7-0.3,1.3-0.7,1.7-1c0.4-0.4,0.8-0.7,1-0.9L596.7,346.1z
		 M590,333.6c0-0.7-0.1-1.4-0.4-2.1c-0.3-0.7-0.7-1.3-1.2-1.9c-0.5-0.6-1.2-1-2-1.4c-0.8-0.4-1.7-0.6-2.8-0.6c-1.1,0-2.1,0.2-3,0.6
		c-0.9,0.4-1.6,0.8-2.2,1.4c-0.6,0.6-1,1.2-1.3,1.9c-0.3,0.7-0.5,1.4-0.5,2.1H590z"/>
	<path class="st4" d="M601.6,342.2c0.8,0.8,1.9,1.6,3.2,2.1c1.3,0.6,2.8,0.8,4.4,0.8c1.5,0,2.6-0.2,3.5-0.6c0.9-0.4,1.3-1,1.3-1.9
		c0-0.4-0.1-0.7-0.2-1.1c-0.2-0.3-0.5-0.6-1-1c-0.5-0.3-1.2-0.6-2.1-0.9c-0.9-0.3-2.1-0.6-3.6-1c-0.9-0.2-1.9-0.5-2.9-0.9
		c-1-0.4-1.9-0.9-2.8-1.6c-0.9-0.7-1.6-1.5-2.1-2.4c-0.6-0.9-0.8-2.1-0.8-3.4c0-1.3,0.3-2.6,1-3.6c0.7-1.1,1.5-1.9,2.6-2.7
		c1.1-0.7,2.3-1.3,3.6-1.6c1.3-0.4,2.7-0.6,4-0.6c2.4,0,4.4,0.2,6.1,0.7c1.7,0.5,3.2,1.3,4.5,2.3l-3.5,4.8c-0.7-0.5-1.7-1-2.9-1.5
		c-1.2-0.4-2.6-0.7-4.2-0.7c-1.6,0-2.7,0.2-3.4,0.7c-0.6,0.5-1,1.1-1,1.8c0,0.8,0.5,1.5,1.6,2c1.1,0.5,2.7,1,4.9,1.5
		c1.4,0.3,2.6,0.7,3.7,1.2c1.1,0.5,2,1,2.8,1.7c0.8,0.7,1.4,1.5,1.8,2.5c0.4,0.9,0.6,2.1,0.6,3.4s-0.3,2.5-0.9,3.6
		c-0.6,1.1-1.5,2-2.5,2.7c-1.1,0.7-2.3,1.3-3.7,1.7c-1.4,0.4-2.9,0.6-4.5,0.6c-2.5,0-4.8-0.4-6.9-1.1c-2-0.7-3.7-1.8-4.9-3.2
		L601.6,342.2z"/>
</g>
</svg>
